<svg width="487" height="488" viewBox="0 0 487 488" fill="none" xmlns="http://www.w3.org/2000/svg">
<path d="M484 390L486.008 734.316L333.687 671.624L333.566 486.887C364.927 483.866 440.364 460.897 484 390Z" fill="#0E1826" fill-opacity="0.15"/>
<path fill-rule="evenodd" clip-rule="evenodd" d="M132.224 427.267C218.348 508.098 467.942 494.175 484 329L485.466 -129.935L-135.417 478.552L15.8001 540.79L132.224 427.267ZM331.761 227.84C334.919 258.845 321.069 320.303 240.401 318.099L331.761 227.84Z" fill="#0E1826" fill-opacity="0.15"/>
<path d="M484 390L486.008 734.316L333.687 671.624L333.566 486.887C364.927 483.866 440.364 460.897 484 390Z" stroke="#A39276" stroke-opacity="0.15" stroke-width="0.5"/>
<path fill-rule="evenodd" clip-rule="evenodd" d="M132.224 427.267C218.348 508.098 467.942 494.175 484 329L485.466 -129.935L-135.417 478.552L15.8001 540.79L132.224 427.267ZM331.761 227.84C334.919 258.845 321.069 320.303 240.401 318.099L331.761 227.84Z" stroke="#A39276" stroke-opacity="0.15" stroke-width="0.5"/>
</svg>
