<svg width="176" height="50" viewBox="0 0 176 50" fill="none" xmlns="http://www.w3.org/2000/svg">
<path d="M33.0691 29.9148L41.0975 49H31.2929L27.1011 38.7399C28.7589 37.855 32.2734 34.8511 33.0691 29.9148Z" fill="#A39276"/>
<path fill-rule="evenodd" clip-rule="evenodd" d="M14.6677 40.0314C21.2396 42.5527 34.5773 36.0859 31.7192 26.5426L21.4883 1L1.09753 49H10.8311L14.6677 40.0314ZM21.1331 24.3901C22.0093 26.0404 22.6393 29.7713 18.149 31.4933L21.1331 24.3901Z" fill="#A39276"/>
<path d="M33.0691 29.9148L41.0975 49H31.2929L27.1011 38.7399C28.7589 37.855 32.2734 34.8511 33.0691 29.9148Z" stroke="#A39276" stroke-width="0.315789"/>
<path fill-rule="evenodd" clip-rule="evenodd" d="M14.6677 40.0314C21.2396 42.5527 34.5773 36.0859 31.7192 26.5426L21.4883 1L1.09753 49H10.8311L14.6677 40.0314ZM21.1331 24.3901C22.0093 26.0404 22.6393 29.7713 18.149 31.4933L21.1331 24.3901Z" stroke="#A39276" stroke-width="0.315789"/>
<path d="M61.8135 10.396C61.8135 11.2173 61.6155 11.9873 61.2195 12.706C60.8382 13.4247 60.2295 14.004 59.3935 14.444C58.5722 14.884 57.5309 15.104 56.2695 15.104H53.6955V21H50.6155V5.644H56.2695C57.4575 5.644 58.4695 5.84933 59.3055 6.26C60.1415 6.67067 60.7649 7.23533 61.1755 7.954C61.6009 8.67267 61.8135 9.48667 61.8135 10.396ZM56.1375 12.618C56.9882 12.618 57.6189 12.4273 58.0295 12.046C58.4402 11.65 58.6455 11.1 58.6455 10.396C58.6455 8.9 57.8095 8.152 56.1375 8.152H53.6955V12.618H56.1375ZM75.3303 14.642C75.3303 15.082 75.301 15.478 75.2423 15.83H66.3323C66.4056 16.71 66.7136 17.3993 67.2563 17.898C67.799 18.3967 68.4663 18.646 69.2583 18.646C70.4023 18.646 71.2163 18.1547 71.7003 17.172H75.0223C74.6703 18.3453 73.9956 19.3133 72.9983 20.076C72.001 20.824 70.7763 21.198 69.3243 21.198C68.151 21.198 67.095 20.9413 66.1563 20.428C65.2323 19.9 64.5063 19.1593 63.9783 18.206C63.465 17.2527 63.2083 16.1527 63.2083 14.906C63.2083 13.6447 63.465 12.5373 63.9783 11.584C64.4916 10.6307 65.2103 9.89733 66.1343 9.384C67.0583 8.87067 68.1216 8.614 69.3243 8.614C70.483 8.614 71.517 8.86333 72.4263 9.362C73.3503 9.86067 74.0616 10.572 74.5603 11.496C75.0736 12.4053 75.3303 13.454 75.3303 14.642ZM72.1403 13.762C72.1256 12.97 71.8396 12.3393 71.2823 11.87C70.725 11.386 70.043 11.144 69.2363 11.144C68.4736 11.144 67.8283 11.3787 67.3003 11.848C66.787 12.3027 66.4716 12.9407 66.3543 13.762H72.1403ZM76.7864 14.862C76.7864 13.63 77.0284 12.5373 77.5124 11.584C78.0111 10.6307 78.6858 9.89733 79.5364 9.384C80.3871 8.87067 81.3331 8.614 82.3744 8.614C83.1664 8.614 83.9218 8.79 84.6404 9.142C85.3591 9.47933 85.9311 9.934 86.3564 10.506V4.72H89.4804V21H86.3564V19.196C85.9751 19.7973 85.4398 20.2813 84.7504 20.648C84.0611 21.0147 83.2618 21.198 82.3524 21.198C81.3258 21.198 80.3871 20.934 79.5364 20.406C78.6858 19.878 78.0111 19.1373 77.5124 18.184C77.0284 17.216 76.7864 16.1087 76.7864 14.862ZM86.3784 14.906C86.3784 14.158 86.2318 13.52 85.9384 12.992C85.6451 12.4493 85.2491 12.0387 84.7504 11.76C84.2518 11.4667 83.7164 11.32 83.1444 11.32C82.5724 11.32 82.0444 11.4593 81.5604 11.738C81.0764 12.0167 80.6804 12.4273 80.3724 12.97C80.0791 13.498 79.9324 14.1287 79.9324 14.862C79.9324 15.5953 80.0791 16.2407 80.3724 16.798C80.6804 17.3407 81.0764 17.7587 81.5604 18.052C82.0591 18.3453 82.5871 18.492 83.1444 18.492C83.7164 18.492 84.2518 18.3527 84.7504 18.074C85.2491 17.7807 85.6451 17.37 85.9384 16.842C86.2318 16.2993 86.3784 15.654 86.3784 14.906ZM95.5686 10.704C95.9646 10.0587 96.4779 9.55267 97.1086 9.186C97.7539 8.81933 98.4872 8.636 99.3086 8.636V11.87H98.4946C97.5266 11.87 96.7932 12.0973 96.2946 12.552C95.8106 13.0067 95.5686 13.7987 95.5686 14.928V21H92.4886V8.812H95.5686V10.704ZM106.795 21.198C105.622 21.198 104.566 20.9413 103.627 20.428C102.688 19.9 101.948 19.1593 101.405 18.206C100.877 17.2527 100.613 16.1527 100.613 14.906C100.613 13.6593 100.884 12.5593 101.427 11.606C101.984 10.6527 102.74 9.91933 103.693 9.406C104.646 8.878 105.71 8.614 106.883 8.614C108.056 8.614 109.12 8.878 110.073 9.406C111.026 9.91933 111.774 10.6527 112.317 11.606C112.874 12.5593 113.153 13.6593 113.153 14.906C113.153 16.1527 112.867 17.2527 112.295 18.206C111.738 19.1593 110.975 19.9 110.007 20.428C109.054 20.9413 107.983 21.198 106.795 21.198ZM106.795 18.514C107.352 18.514 107.873 18.382 108.357 18.118C108.856 17.8393 109.252 17.4287 109.545 16.886C109.838 16.3433 109.985 15.6833 109.985 14.906C109.985 13.7473 109.677 12.86 109.061 12.244C108.46 11.6133 107.719 11.298 106.839 11.298C105.959 11.298 105.218 11.6133 104.617 12.244C104.03 12.86 103.737 13.7473 103.737 14.906C103.737 16.0647 104.023 16.9593 104.595 17.59C105.182 18.206 105.915 18.514 106.795 18.514ZM60.0315 42.074H53.9155L52.9035 45H49.6695L55.1915 29.622H58.7775L64.2995 45H61.0435L60.0315 42.074ZM59.1955 39.61L56.9735 33.186L54.7515 39.61H59.1955ZM69.4436 28.72V45H66.3636V28.72H69.4436ZM83.9926 32.812V45H80.8906V43.46C80.4946 43.988 79.974 44.406 79.3286 44.714C78.698 45.0073 78.0086 45.154 77.2606 45.154C76.3073 45.154 75.464 44.956 74.7306 44.56C73.9973 44.1493 73.418 43.5553 72.9926 42.778C72.582 41.986 72.3766 41.0473 72.3766 39.962V32.812H75.4566V39.522C75.4566 40.49 75.6986 41.238 76.1826 41.766C76.6666 42.2793 77.3266 42.536 78.1626 42.536C79.0133 42.536 79.6806 42.2793 80.1646 41.766C80.6486 41.238 80.8906 40.49 80.8906 39.522V32.812H83.9926ZM102.168 32.636C103.664 32.636 104.866 33.098 105.776 34.022C106.7 34.9313 107.162 36.2073 107.162 37.85V45H104.082V38.268C104.082 37.3147 103.84 36.5887 103.356 36.09C102.872 35.5767 102.212 35.32 101.376 35.32C100.54 35.32 99.8722 35.5767 99.3736 36.09C98.8896 36.5887 98.6475 37.3147 98.6475 38.268V45H95.5676V38.268C95.5676 37.3147 95.3256 36.5887 94.8416 36.09C94.3576 35.5767 93.6976 35.32 92.8616 35.32C92.0109 35.32 91.3362 35.5767 90.8376 36.09C90.3535 36.5887 90.1115 37.3147 90.1115 38.268V45H87.0315V32.812H90.1115V34.286C90.5076 33.7727 91.0136 33.3693 91.6296 33.076C92.2602 32.7827 92.9496 32.636 93.6975 32.636C94.6509 32.636 95.5016 32.8413 96.2496 33.252C96.9976 33.648 97.5769 34.22 97.9876 34.968C98.3836 34.264 98.9556 33.6993 99.7036 33.274C100.466 32.8487 101.288 32.636 102.168 32.636ZM113.296 32.812V45H110.216V32.812H113.296ZM114.154 29.644L109.094 31.954V29.754L114.154 27.136V29.644ZM123.219 32.636C124.671 32.636 125.844 33.098 126.739 34.022C127.634 34.9313 128.081 36.2073 128.081 37.85V45H125.001V38.268C125.001 37.3 124.759 36.5593 124.275 36.046C123.791 35.518 123.131 35.254 122.295 35.254C121.444 35.254 120.77 35.518 120.271 36.046C119.787 36.5593 119.545 37.3 119.545 38.268V45H116.465V32.812H119.545V34.33C119.956 33.802 120.476 33.3913 121.107 33.098C121.752 32.79 122.456 32.636 123.219 32.636ZM132.572 31.36C132.029 31.36 131.575 31.1913 131.208 30.854C130.856 30.502 130.68 30.0693 130.68 29.556C130.68 29.0427 130.856 28.6173 131.208 28.28C131.575 27.928 132.029 27.752 132.572 27.752C133.115 27.752 133.562 27.928 133.914 28.28C134.281 28.6173 134.464 29.0427 134.464 29.556C134.464 30.0693 134.281 30.502 133.914 30.854C133.562 31.1913 133.115 31.36 132.572 31.36ZM134.09 32.812V45H131.01V32.812H134.09ZM142.545 45.198C141.372 45.198 140.316 44.9413 139.377 44.428C138.438 43.9 137.698 43.1593 137.155 42.206C136.627 41.2527 136.363 40.1527 136.363 38.906C136.363 37.6593 136.634 36.5593 137.177 35.606C137.734 34.6527 138.49 33.9193 139.443 33.406C140.396 32.878 141.46 32.614 142.633 32.614C143.806 32.614 144.87 32.878 145.823 33.406C146.776 33.9193 147.524 34.6527 148.067 35.606C148.624 36.5593 148.903 37.6593 148.903 38.906C148.903 40.1527 148.617 41.2527 148.045 42.206C147.488 43.1593 146.725 43.9 145.757 44.428C144.804 44.9413 143.733 45.198 142.545 45.198ZM142.545 42.514C143.102 42.514 143.623 42.382 144.107 42.118C144.606 41.8393 145.002 41.4287 145.295 40.886C145.588 40.3433 145.735 39.6833 145.735 38.906C145.735 37.7473 145.427 36.86 144.811 36.244C144.21 35.6133 143.469 35.298 142.589 35.298C141.709 35.298 140.968 35.6133 140.367 36.244C139.78 36.86 139.487 37.7473 139.487 38.906C139.487 40.0647 139.773 40.9593 140.345 41.59C140.932 42.206 141.665 42.514 142.545 42.514ZM155.826 45.198C154.829 45.198 153.934 45.022 153.142 44.67C152.35 44.3033 151.72 43.812 151.25 43.196C150.796 42.58 150.546 41.898 150.502 41.15H153.604C153.663 41.6193 153.89 42.008 154.286 42.316C154.697 42.624 155.203 42.778 155.804 42.778C156.391 42.778 156.846 42.6607 157.168 42.426C157.506 42.1913 157.674 41.8907 157.674 41.524C157.674 41.128 157.469 40.8347 157.058 40.644C156.662 40.4387 156.024 40.2187 155.144 39.984C154.235 39.764 153.487 39.5367 152.9 39.302C152.328 39.0673 151.83 38.708 151.404 38.224C150.994 37.74 150.788 37.0873 150.788 36.266C150.788 35.5913 150.979 34.9753 151.36 34.418C151.756 33.8607 152.314 33.4207 153.032 33.098C153.766 32.7753 154.624 32.614 155.606 32.614C157.058 32.614 158.217 32.9807 159.082 33.714C159.948 34.4327 160.424 35.408 160.512 36.64H157.564C157.52 36.156 157.315 35.7747 156.948 35.496C156.596 35.2027 156.12 35.056 155.518 35.056C154.961 35.056 154.528 35.1587 154.22 35.364C153.927 35.5693 153.78 35.8553 153.78 36.222C153.78 36.6327 153.986 36.948 154.396 37.168C154.807 37.3733 155.445 37.586 156.31 37.806C157.19 38.026 157.916 38.2533 158.488 38.488C159.06 38.7227 159.552 39.0893 159.962 39.588C160.388 40.072 160.608 40.7173 160.622 41.524C160.622 42.228 160.424 42.8587 160.028 43.416C159.647 43.9733 159.09 44.4133 158.356 44.736C157.638 45.044 156.794 45.198 155.826 45.198Z" fill="#A39276"/>
</svg>
